<svg width="117" height="28" viewBox="0 0 117 28" fill="none" xmlns="http://www.w3.org/2000/svg">
<path d="M24.4189 23.0332C24.4189 23.4238 24.292 23.7559 24.0381 24.0293C23.7939 24.3125 23.4717 24.4541 23.0713 24.4541C22.8955 24.4541 22.7539 24.415 22.6465 24.3369C22.5098 24.2295 22.3584 24.0879 22.1924 23.9121C22.0264 23.7266 21.8506 23.4971 21.665 23.2236C21.3037 22.667 20.9717 22.0859 20.6689 21.4805C20.376 20.8652 20.1367 20.3232 19.9512 19.8545C19.9023 19.7178 19.8486 19.5957 19.79 19.4883C19.7412 19.3711 19.6875 19.2539 19.6289 19.1367C19.5801 19.0098 19.5264 18.8779 19.4678 18.7412C19.4092 18.5947 19.3457 18.4189 19.2773 18.2139C18.9941 17.374 18.7891 16.8223 18.6621 16.5586C18.5254 16.6953 18.3936 16.8027 18.2666 16.8809C18.1396 16.9492 18.0029 17.0029 17.8564 17.042C17.7197 17.0713 17.5732 17.0908 17.417 17.1006C17.2705 17.1006 17.1094 17.1006 16.9336 17.1006C16.8359 17.1006 16.7139 17.1201 16.5674 17.1592C16.4209 17.1982 16.2598 17.2422 16.084 17.291C15.918 17.3398 15.752 17.3936 15.5859 17.4521C15.4199 17.5107 15.2637 17.5596 15.1172 17.5986C14.6289 17.7354 14.1357 17.8574 13.6377 17.9648C13.1396 18.0723 12.627 18.1797 12.0996 18.2871C11.5723 18.3848 11.0205 18.4824 10.4443 18.5801C9.86816 18.668 9.25781 18.7656 8.61328 18.873C8.32031 18.9219 8.04199 19.1123 7.77832 19.4443C7.52441 19.7861 6.99707 20.5186 6.19629 21.6416C5.41504 22.7549 4.75098 23.5703 4.2041 24.0879C3.66699 24.6055 3.14453 24.8643 2.63672 24.8643C1.99219 24.8643 1.45508 24.7373 1.02539 24.4834C0.537109 24.1709 0.292969 23.8389 0.292969 23.4873C0.292969 23.3018 0.395508 23.1699 0.600586 23.0918C0.81543 23.0039 1.10352 22.9258 1.46484 22.8574C1.58203 22.8477 1.85059 22.6084 2.27051 22.1396C2.6709 21.6904 2.97363 21.3193 3.17871 21.0264C3.58887 20.4893 4.00391 19.918 4.42383 19.3125C4.85352 18.6973 5.33203 18.0088 5.85938 17.2471C6.11328 16.8564 6.33789 16.5195 6.5332 16.2363C6.72852 15.9531 6.88965 15.7139 7.0166 15.5186C7.15332 15.3232 7.30469 15.1035 7.4707 14.8594C7.64648 14.6152 7.84668 14.3418 8.07129 14.0391C8.16895 13.9023 8.28613 13.7363 8.42285 13.541C8.55957 13.3457 8.7207 13.126 8.90625 12.8818C9.0918 12.6279 9.25781 12.4033 9.4043 12.208C9.56055 12.0127 9.69238 11.8369 9.7998 11.6807C9.91699 11.5244 10.0635 11.3291 10.2393 11.0947C10.4248 10.8604 10.6396 10.582 10.8838 10.2598C10.9619 10.1621 11.1133 9.93262 11.3379 9.57129C11.5723 9.20996 11.8848 8.71191 12.2754 8.07715C12.8223 7.16895 13.1787 6.50488 13.3447 6.08496C14.4873 3.31152 15.3467 1.9248 15.9229 1.9248C16.1768 1.9248 16.3818 1.94922 16.5381 1.99805C16.6943 2.03711 16.8164 2.11035 16.9043 2.21777C16.9922 2.31543 17.0508 2.45215 17.0801 2.62793C17.1094 2.79395 17.124 2.99902 17.124 3.24316C17.124 3.40918 17.124 3.55566 17.124 3.68262C17.124 3.80957 17.1191 3.91211 17.1094 3.99023C17.0996 4.14648 17.0898 4.34668 17.0801 4.59082C17.0703 4.83496 17.0557 5.12305 17.0361 5.45508C17.5244 6.48047 17.9883 7.58398 18.4277 8.76562C18.6523 9.36133 18.8867 10.0156 19.1309 10.7285C19.3848 11.4316 19.6533 12.208 19.9365 13.0576C20.2197 13.8975 20.4688 14.6152 20.6836 15.2109C20.8984 15.8066 21.0742 16.29 21.2109 16.6611C21.3477 17.0322 21.5088 17.457 21.6943 17.9355C21.8896 18.4141 22.1191 18.9561 22.3828 19.5615C22.4805 19.7861 22.8467 20.3281 23.4814 21.1875C24.1064 22.0469 24.4189 22.6621 24.4189 23.0332ZM17.9297 14.376C17.7539 13.8389 17.5635 13.2627 17.3584 12.6475C17.1533 12.0225 16.9385 11.4023 16.7139 10.7871C16.499 10.1621 16.2744 9.56152 16.04 8.98535C15.8154 8.40918 15.5908 7.89648 15.3662 7.44727C14.8193 8.18945 14.3018 8.90234 13.8135 9.58594C13.3252 10.2695 12.8516 10.958 12.3926 11.6514C11.9434 12.335 11.4941 13.0381 11.0449 13.7607C10.6055 14.4834 10.1562 15.2549 9.69727 16.0752C9.80469 16.1143 9.90234 16.1338 9.99023 16.1338C10.1367 16.1338 10.3223 16.124 10.5469 16.1045C10.7812 16.0752 11.0156 16.0459 11.25 16.0166C11.4941 15.9775 11.7236 15.9385 11.9385 15.8994C12.1631 15.8604 12.3438 15.8262 12.4805 15.7969C12.7148 15.7383 12.915 15.6895 13.0811 15.6504C13.2568 15.6113 13.4229 15.5723 13.5791 15.5332C13.7354 15.4941 13.9014 15.4551 14.0771 15.416C14.2627 15.3672 14.4824 15.3135 14.7363 15.2549C15.3027 15.1084 15.8643 14.9619 16.4209 14.8154C16.9775 14.6592 17.4805 14.5127 17.9297 14.376ZM42.2168 12.5449C42.2168 12.7793 42.1582 12.96 42.041 13.0869C41.9336 13.2139 41.792 13.3262 41.6162 13.4238C41.4502 13.5215 41.2646 13.6191 41.0596 13.7168C40.8643 13.8047 40.6836 13.9365 40.5176 14.1123C40.2344 14.3955 39.9512 14.6982 39.668 15.0205C39.3848 15.333 39.1064 15.6553 38.833 15.9873C38.5596 16.3096 38.291 16.6367 38.0273 16.9688C37.7734 17.291 37.5293 17.6035 37.2949 17.9062C36.6113 18.834 35.9375 19.8447 35.2734 20.9385C34.6191 22.0322 34.0137 23.1162 33.457 24.1904C33.2812 24.5322 33.0811 24.835 32.8564 25.0986C32.6416 25.3721 32.4268 25.6016 32.2119 25.7871C31.9971 25.9824 31.8018 26.1289 31.626 26.2266C31.46 26.3242 31.333 26.373 31.2451 26.373C30.835 26.373 30.415 26.085 29.9854 25.5088C30.0049 25.3916 30.0195 25.2842 30.0293 25.1865C30.0391 25.0986 30.0439 25.0156 30.0439 24.9375C30.0439 24.6055 30.0049 24.2588 29.9268 23.8975C29.8486 23.5361 29.7363 23.1504 29.5898 22.7402C29.4434 22.3301 29.2627 21.8906 29.0479 21.4219C28.833 20.9434 28.5889 20.416 28.3154 19.8398C28.042 19.2734 27.8027 18.7119 27.5977 18.1553C27.3926 17.5986 27.2217 17.0664 27.085 16.5586C26.9482 16.041 26.8457 15.5576 26.7773 15.1084C26.709 14.6494 26.6748 14.2344 26.6748 13.8633C26.6748 13.5996 26.709 13.3213 26.7773 13.0283C26.8555 12.7354 26.9629 12.4668 27.0996 12.2227C27.2363 11.9785 27.4072 11.7783 27.6123 11.6221C27.8271 11.4561 28.0713 11.373 28.3447 11.373C28.7549 11.373 29.0479 11.4561 29.2236 11.6221C29.3994 11.7783 29.4873 12.0664 29.4873 12.4863C29.4873 12.623 29.4678 12.7744 29.4287 12.9404C29.3994 13.0967 29.3652 13.2578 29.3262 13.4238C29.2871 13.5801 29.248 13.7363 29.209 13.8926C29.1797 14.0488 29.165 14.2002 29.165 14.3467C29.165 14.8057 29.2188 15.2793 29.3262 15.7676C29.4434 16.2461 29.585 16.7344 29.751 17.2324C29.9268 17.7305 30.1172 18.2285 30.3223 18.7266C30.5371 19.2148 30.7422 19.6934 30.9375 20.1621C31.1914 20.7383 31.3965 21.2363 31.5527 21.6562C31.7188 22.0762 31.8164 22.3203 31.8457 22.3887C32.0801 22.2031 32.3438 21.9199 32.6367 21.5391C32.9395 21.1582 33.2568 20.7236 33.5889 20.2354C33.9209 19.7373 34.2578 19.2148 34.5996 18.668C34.9414 18.1211 35.2734 17.5889 35.5957 17.0713C35.6934 16.9248 35.8252 16.7197 35.9912 16.4561C36.1572 16.1826 36.3379 15.8848 36.5332 15.5625C36.7383 15.2402 36.9482 14.9082 37.1631 14.5664C37.3877 14.2148 37.6025 13.8828 37.8076 13.5703C38.0127 13.248 38.2031 12.96 38.3789 12.7061C38.5547 12.4424 38.6963 12.2422 38.8037 12.1055C39.0674 11.7637 39.3848 11.5 39.7559 11.3145C40.1367 11.1289 40.5371 11.0361 40.957 11.0361C41.1523 11.0361 41.3281 11.0898 41.4844 11.1973C41.6406 11.2949 41.7725 11.4219 41.8799 11.5781C41.9873 11.7246 42.0703 11.8857 42.1289 12.0615C42.1875 12.2373 42.2168 12.3984 42.2168 12.5449ZM56.9531 6.65625C56.9531 7.1543 56.8066 7.47656 56.5137 7.62305C56.3965 7.67188 56.0693 7.71094 55.5322 7.74023C54.9756 7.76953 54.3457 7.78418 53.6426 7.78418C53.291 7.78418 53.0078 7.78418 52.793 7.78418C52.5879 7.78418 52.4463 7.78906 52.3682 7.79883C52.3486 8.0332 52.3193 8.30664 52.2803 8.61914C52.251 8.93164 52.2119 9.2832 52.1631 9.67383C52.0557 10.4551 51.9824 11.041 51.9434 11.4316C51.9238 11.627 51.9092 11.8271 51.8994 12.0322C51.8896 12.2373 51.8848 12.4473 51.8848 12.6621C51.8848 12.6914 51.9238 12.7305 52.002 12.7793C52.0801 12.8281 52.124 12.877 52.1338 12.9258C52.3486 13.0527 52.5488 13.1748 52.7344 13.292C52.9199 13.3994 53.0957 13.5068 53.2617 13.6143C53.457 13.751 53.6963 13.8828 53.9795 14.0098C54.2822 14.1367 54.5264 14.2588 54.7119 14.376C54.8975 14.4932 55.0537 14.6689 55.1807 14.9033C55.4053 15.2939 55.5176 15.8555 55.5176 16.5879C55.5176 17.4766 55.0781 18.2041 54.1992 18.7705C53.3398 19.3369 52.3193 19.791 51.1377 20.1328C51.1377 20.2598 51.1182 20.5283 51.0791 20.9385C51.0498 21.3389 51.001 21.8809 50.9326 22.5645C50.8643 23.248 50.8154 23.7754 50.7861 24.1465C50.7568 24.5273 50.7422 24.7568 50.7422 24.835C50.7422 25.0596 50.791 25.4111 50.8887 25.8896C50.9961 26.4072 51.0498 26.7686 51.0498 26.9736C51.0498 27.0518 51.0156 27.125 50.9473 27.1934C50.8887 27.2617 50.8105 27.3203 50.7129 27.3691C50.625 27.418 50.5225 27.457 50.4053 27.4863C50.2881 27.5254 50.1709 27.5449 50.0537 27.5449C49.5752 27.5449 49.248 27.4229 49.0723 27.1787C48.8867 26.9346 48.7939 26.5488 48.7939 26.0215V25.5527C48.7939 25.377 48.8037 25.123 48.8232 24.791C48.8525 24.4688 48.8916 24.0586 48.9404 23.5605C48.9893 23.0625 49.0283 22.6182 49.0576 22.2275C49.0869 21.8271 49.1016 21.4756 49.1016 21.1729C48.9941 21.2217 48.8525 21.2607 48.6768 21.29C48.5107 21.3193 48.3252 21.3535 48.1201 21.3926C47.915 21.4219 47.7002 21.4561 47.4756 21.4951C47.251 21.5244 47.0312 21.5586 46.8164 21.5977C46.6699 21.6367 46.5039 21.6807 46.3184 21.7295C46.1328 21.7686 45.9277 21.8174 45.7031 21.876C45.2637 21.9834 44.8779 22.0762 44.5459 22.1543C44.2139 22.2227 43.9502 22.2568 43.7549 22.2568C43.4229 22.2568 43.0811 22.1934 42.7295 22.0664C42.3584 21.9297 42.1729 21.7441 42.1729 21.5098C42.1729 21.2461 42.2266 21.0117 42.334 20.8066C42.4512 20.6016 42.6025 20.4209 42.7881 20.2646C42.9736 20.1084 43.1885 19.9814 43.4326 19.8838C43.6865 19.7764 43.9551 19.6982 44.2383 19.6494C44.4043 19.6201 44.6094 19.5957 44.8535 19.5762C45.0977 19.5469 45.3906 19.5225 45.7324 19.5029C46.2012 19.4639 46.5967 19.4297 46.9189 19.4004C47.251 19.3711 47.5098 19.3418 47.6953 19.3125C48.0566 19.2441 48.584 19.0684 49.2773 18.7852C49.2871 18.7363 49.3066 18.5947 49.3359 18.3604C49.3652 18.126 49.4092 17.7891 49.4678 17.3496C49.5361 16.9102 49.5898 16.5195 49.6289 16.1777C49.668 15.8262 49.6973 15.5234 49.7168 15.2695C49.7363 15.0156 49.751 14.752 49.7607 14.4785C49.7803 14.1953 49.79 13.9072 49.79 13.6143C49.585 13.458 48.9746 13.1797 47.959 12.7793C47.627 12.6719 47.251 12.5254 46.8311 12.3398C46.3818 12.1445 46.0791 11.9834 45.9229 11.8564C45.4248 11.4658 45.0488 11.0752 44.7949 10.6846C44.541 10.2842 44.4141 9.82031 44.4141 9.29297C44.4141 8.80469 44.8047 8.33105 45.5859 7.87207C46.3867 7.40332 47.2705 7.02246 48.2373 6.72949C49.2139 6.42676 49.9609 6.26562 50.4785 6.24609C50.5371 5.88477 50.5664 5.51367 50.5664 5.13281V1.89551C50.5664 1.60254 50.7324 1.37793 51.0645 1.22168C51.3965 1.0459 51.709 0.958008 52.002 0.958008C52.2754 0.958008 52.5049 1.08984 52.6904 1.35352C52.876 1.61719 52.9688 2.02734 52.9688 2.58398C52.9688 2.93555 52.8906 3.4873 52.7344 4.23926C52.5879 5.00098 52.5146 5.52832 52.5146 5.82129C52.6318 5.80176 52.7783 5.79199 52.9541 5.79199C53.1299 5.78223 53.335 5.77246 53.5693 5.7627C53.8037 5.75293 53.999 5.74805 54.1553 5.74805C54.3213 5.74805 54.4531 5.74316 54.5508 5.7334C54.5996 5.72363 54.6729 5.71387 54.7705 5.7041C54.8682 5.68457 55 5.65527 55.166 5.61621C55.4688 5.54785 55.7373 5.51367 55.9717 5.51367C56.626 5.51367 56.9531 5.89453 56.9531 6.65625ZM50.332 8.16504C48.3398 8.5752 47.1875 9.08301 46.875 9.68848C46.9141 9.93262 47.3438 10.2793 48.1641 10.7285C48.9941 11.168 49.6143 11.4609 50.0244 11.6074L50.332 8.16504ZM53.7158 16.5C53.7158 16.207 53.4717 15.8311 52.9834 15.3721C52.4854 14.9033 52.0605 14.5713 51.709 14.376C51.582 15.2549 51.4893 16.0166 51.4307 16.6611C51.3721 17.2959 51.3428 17.8232 51.3428 18.2432C51.499 18.1553 51.6553 18.0674 51.8115 17.9795C51.9775 17.8916 52.1436 17.7988 52.3096 17.7012C52.4756 17.6035 52.6367 17.5059 52.793 17.4082C52.959 17.3105 53.1152 17.208 53.2617 17.1006C53.5645 16.8857 53.7158 16.6855 53.7158 16.5ZM82.7344 16.6611C82.7344 16.7686 82.7246 16.8955 82.7051 17.042C82.6953 17.1885 82.666 17.3398 82.6172 17.4961C82.5781 17.6523 82.5195 17.8086 82.4414 17.9648C82.3633 18.1113 82.2656 18.2432 82.1484 18.3604C81.5625 18.917 80.9521 19.4248 80.3174 19.8838C79.6924 20.333 79.0674 20.7188 78.4424 21.041C77.8174 21.3535 77.207 21.5977 76.6113 21.7734C76.0156 21.9492 75.459 22.0371 74.9414 22.0371C74.2285 22.0371 73.6328 21.9053 73.1543 21.6416C72.6855 21.3682 72.3096 21.0166 72.0264 20.5869C71.7432 20.1475 71.543 19.6494 71.4258 19.0928C71.3086 18.5264 71.25 17.9502 71.25 17.3643C71.25 17.1689 71.2549 16.9443 71.2646 16.6904C71.2842 16.4268 71.3037 16.1582 71.3232 15.8848C71.3428 15.6016 71.3574 15.3281 71.3672 15.0645C71.3867 14.8008 71.3965 14.5615 71.3965 14.3467C71.3965 14.0439 71.3721 13.7852 71.3232 13.5703C71.2842 13.3457 71.2061 13.1895 71.0889 13.1016C70.8838 13.209 70.6299 13.4189 70.3271 13.7314C70.0244 14.0439 69.6875 14.4395 69.3164 14.918C68.9551 15.3965 68.5645 15.9482 68.1445 16.5732C67.7344 17.1982 67.3193 17.8721 66.8994 18.5947C66.6357 19.0439 66.3623 19.5127 66.0791 20.001C65.7959 20.4893 65.5127 20.9678 65.2295 21.4365C64.9561 21.8955 64.6826 22.335 64.4092 22.7549C64.1357 23.1748 63.877 23.5459 63.6328 23.8682C63.3887 24.1807 63.1641 24.4297 62.959 24.6152C62.7539 24.8008 62.583 24.8936 62.4463 24.8936C62.2705 24.8936 62.124 24.8789 62.0068 24.8496C61.8994 24.8203 61.8018 24.791 61.7139 24.7617C61.6357 24.7324 61.5625 24.7031 61.4941 24.6738C61.4355 24.6445 61.3721 24.6299 61.3037 24.6299C61.2256 24.3564 61.167 24.0293 61.1279 23.6484C61.0889 23.2676 61.0596 22.8867 61.04 22.5059C61.0205 22.1152 61.0059 21.7588 60.9961 21.4365C60.9961 21.1045 60.9961 20.8555 60.9961 20.6895C60.9961 19.3809 61.0889 18.0039 61.2744 16.5586C61.4697 15.1133 61.6992 13.5996 61.9629 12.0176C62.2266 10.4258 62.5 8.76562 62.7832 7.03711C63.0664 5.29883 63.3008 3.48242 63.4863 1.58789C63.5449 1.31445 63.6328 1.08984 63.75 0.914062C63.8672 0.738281 63.999 0.601563 64.1455 0.503906C64.292 0.40625 64.4385 0.342773 64.585 0.313477C64.7314 0.274414 64.8633 0.254883 64.9805 0.254883C65.2734 0.254883 65.5078 0.40625 65.6836 0.708984C65.8594 1.01172 65.9473 1.41699 65.9473 1.9248C65.9473 2.06152 65.9277 2.27148 65.8887 2.55469C65.8594 2.83789 65.8105 3.16016 65.7422 3.52148C65.6836 3.87305 65.6152 4.25391 65.5371 4.66406C65.4688 5.06445 65.3906 5.46484 65.3027 5.86523C65.2246 6.26562 65.1465 6.65137 65.0684 7.02246C65 7.38379 64.9365 7.69629 64.8779 7.95996C64.6436 9.01465 64.4287 10.0889 64.2334 11.1826C64.0479 12.2666 63.8818 13.2871 63.7354 14.2441C63.5986 15.1914 63.4912 16.041 63.4131 16.793C63.335 17.5352 63.2959 18.0918 63.2959 18.4629C63.2959 18.5605 63.2959 18.6973 63.2959 18.873C63.2959 19.0488 63.2959 19.2295 63.2959 19.415C63.3057 19.6006 63.3154 19.7764 63.3252 19.9424C63.335 20.0986 63.3496 20.2061 63.3691 20.2646C63.7305 19.9912 64.0771 19.6445 64.4092 19.2246C64.751 18.8047 65.0977 18.3262 65.4492 17.7891C65.8105 17.2422 66.1963 16.6514 66.6064 16.0166C67.0166 15.3721 67.4805 14.6934 67.998 13.9805C68.2715 13.5898 68.5938 13.1699 68.9648 12.7207C69.3457 12.2715 69.751 11.8564 70.1807 11.4756C70.6104 11.085 71.0596 10.7627 71.5283 10.5088C72.0068 10.2549 72.4805 10.1279 72.9492 10.1279C73.1641 10.1279 73.335 10.3086 73.4619 10.6699C73.5986 11.0312 73.667 11.5 73.667 12.0762C73.667 12.2324 73.6426 12.4717 73.5938 12.7939C73.5547 13.1064 73.5107 13.458 73.4619 13.8486C73.4131 14.2295 73.3643 14.625 73.3154 15.0352C73.2764 15.4453 73.2568 15.8262 73.2568 16.1777C73.2568 16.4609 73.2715 16.8027 73.3008 17.2031C73.3398 17.5938 73.4277 17.9697 73.5645 18.3311C73.7109 18.6924 73.9209 19 74.1943 19.2539C74.4775 19.5078 74.8682 19.6348 75.3662 19.6348C76.1865 19.6348 77.1143 19.4395 78.1494 19.0488C79.1846 18.6582 80.2783 18.0283 81.4307 17.1592C81.5479 17.0713 81.6553 16.9834 81.7529 16.8955C81.8604 16.7979 81.9531 16.71 82.0312 16.6318C82.1191 16.5537 82.1973 16.4902 82.2656 16.4414C82.334 16.3828 82.3877 16.3535 82.4268 16.3535C82.4365 16.3535 82.4561 16.3682 82.4854 16.3975C82.5244 16.4268 82.5586 16.4609 82.5879 16.5C82.627 16.5293 82.6611 16.5635 82.6904 16.6025C82.7197 16.6318 82.7344 16.6514 82.7344 16.6611ZM89.165 10.1279C89.165 10.0205 89.1309 9.91797 89.0625 9.82031C89.0039 9.72266 88.9258 9.63477 88.8281 9.55664C88.7402 9.47852 88.6426 9.41504 88.5352 9.36621C88.4375 9.31738 88.3545 9.29297 88.2861 9.29297C87.9053 9.29297 87.4805 9.4541 87.0117 9.77637C86.5527 10.0889 86.1084 10.5283 85.6787 11.0947C85.2588 11.6611 84.8828 12.3398 84.5508 13.1309C84.2188 13.9219 83.9941 14.791 83.877 15.7383C84.0137 15.6504 84.2432 15.4795 84.5654 15.2256C84.8877 14.9717 85.2344 14.6885 85.6055 14.376C85.9863 14.0635 86.3574 13.7461 86.7188 13.4238C87.0898 13.1016 87.3877 12.8232 87.6123 12.5889C87.8857 12.3057 88.1201 12.0518 88.3154 11.8271C88.5205 11.6025 88.6816 11.3975 88.7988 11.2119C88.9258 11.0166 89.0186 10.8311 89.0771 10.6553C89.1357 10.4795 89.165 10.3037 89.165 10.1279ZM99.7119 10.6113C99.7119 10.8359 99.6143 11.1973 99.4189 11.6953C99.2236 12.1836 98.9551 12.7451 98.6133 13.3799C98.2715 14.0049 97.8711 14.6641 97.4121 15.3574C96.9531 16.0508 96.4551 16.7051 95.918 17.3203C95.3711 17.9844 94.7559 18.6289 94.0723 19.2539C93.3887 19.8789 92.6514 20.4355 91.8604 20.9238C91.0791 21.4121 90.2539 21.8027 89.3848 22.0957C88.5156 22.3887 87.6221 22.5352 86.7041 22.5352C85.7666 22.5352 84.9658 22.3789 84.3018 22.0664C83.6475 21.7441 83.1104 21.3242 82.6904 20.8066C82.2803 20.2891 81.9775 19.7031 81.7822 19.0488C81.5967 18.3945 81.5039 17.7256 81.5039 17.042C81.5039 16.4268 81.5625 15.8066 81.6797 15.1816C81.7969 14.5469 81.9629 13.9316 82.1777 13.3359C82.4023 12.7305 82.666 12.1543 82.9688 11.6074C83.2715 11.0605 83.6084 10.5527 83.9795 10.084C84.2139 9.78125 84.4971 9.46387 84.8291 9.13184C85.1709 8.79004 85.5518 8.47754 85.9717 8.19434C86.4014 7.91113 86.8652 7.67676 87.3633 7.49121C87.8613 7.2959 88.3838 7.19824 88.9307 7.19824C89.3213 7.19824 89.6631 7.27148 89.9561 7.41797C90.2588 7.55469 90.5078 7.74023 90.7031 7.97461C90.9082 8.19922 91.0596 8.45312 91.1572 8.73633C91.2646 9.01953 91.3184 9.30273 91.3184 9.58594C91.3184 10.1621 91.2109 10.7188 90.9961 11.2559C90.7812 11.793 90.4297 12.3496 89.9414 12.9258C89.4531 13.4922 88.8135 14.0928 88.0225 14.7275C87.2412 15.3525 86.2793 16.0459 85.1367 16.8076C85.0684 16.8564 84.9707 16.9199 84.8438 16.998C84.7168 17.0762 84.5898 17.1641 84.4629 17.2617C84.3359 17.3496 84.2236 17.4424 84.126 17.54C84.0381 17.6279 83.9941 17.7061 83.9941 17.7744C83.9941 18.0381 84.0381 18.3262 84.126 18.6387C84.2139 18.9414 84.3701 19.2246 84.5947 19.4883C84.8291 19.7422 85.1465 19.957 85.5469 20.1328C85.9473 20.3086 86.46 20.3965 87.085 20.3965C87.5244 20.3965 87.9785 20.3428 88.4473 20.2354C88.9258 20.1182 89.3994 19.9619 89.8682 19.7666C90.3467 19.5615 90.8154 19.3223 91.2744 19.0488C91.7334 18.7656 92.168 18.4531 92.5781 18.1113C93.125 17.6719 93.6768 17.1641 94.2334 16.5879C94.79 16.002 95.332 15.3721 95.8594 14.6982C96.3867 14.0244 96.8896 13.3164 97.3682 12.5742C97.8467 11.8223 98.2812 11.0605 98.6719 10.2891C98.7793 10.0742 98.8965 9.92773 99.0234 9.84961C99.1602 9.77148 99.2725 9.73242 99.3604 9.73242C99.4775 9.73242 99.5654 9.81055 99.624 9.9668C99.6826 10.1133 99.7119 10.3281 99.7119 10.6113ZM116.689 22.1836C116.689 22.3887 116.572 22.5889 116.338 22.7842C116.113 22.9697 115.84 23.1309 115.518 23.2676C115.195 23.4043 114.863 23.5166 114.521 23.6045C114.189 23.6826 113.916 23.7217 113.701 23.7217C112.822 23.7217 112.002 23.6289 111.24 23.4434C110.488 23.2578 109.722 23.0039 108.94 22.6816C108.296 22.418 107.681 22.1152 107.095 21.7734C106.509 21.4316 105.923 21.0752 105.337 20.7041C104.761 20.333 104.175 19.957 103.579 19.5762C102.983 19.1855 102.354 18.8047 101.689 18.4336C101.67 18.4531 101.621 18.502 101.543 18.5801C101.475 18.6484 101.392 18.7266 101.294 18.8145C101.206 18.9023 101.108 18.9951 101.001 19.0928C100.903 19.1807 100.82 19.2539 100.752 19.3125C100.498 19.5371 100.298 19.7324 100.151 19.8984C100.015 20.0645 99.8975 20.2256 99.7998 20.3818C99.7119 20.5283 99.6387 20.6748 99.5801 20.8213C99.5215 20.9678 99.4531 21.1289 99.375 21.3047C99.4141 21.4902 99.4043 21.7148 99.3457 21.9785C99.2969 22.2324 99.2725 22.4668 99.2725 22.6816C99.2725 23.3164 99.1357 23.7949 98.8623 24.1172C98.5986 24.4395 98.1787 24.6006 97.6025 24.6006C97.251 24.6006 97.0264 24.5127 96.9287 24.3369C96.8408 24.1709 96.7969 23.8975 96.7969 23.5166C96.7969 23.3994 96.8164 23.1504 96.8555 22.7695C96.9043 22.3789 96.9629 21.9053 97.0312 21.3486C97.0996 20.7822 97.1777 20.1572 97.2656 19.4736C97.3633 18.7803 97.4609 18.0771 97.5586 17.3643C97.666 16.6416 97.7686 15.9287 97.8662 15.2256C97.9639 14.5127 98.0566 13.8584 98.1445 13.2627C98.2324 12.6572 98.3057 12.1348 98.3643 11.6953C98.4326 11.2559 98.4814 10.9385 98.5107 10.7432C98.5303 10.5674 98.5547 10.3037 98.584 9.95215C98.6133 9.60059 98.6426 9.20508 98.6719 8.76562C98.7109 8.32617 98.75 7.86719 98.7891 7.38867C98.8281 6.90039 98.8623 6.44141 98.8916 6.01172C98.9307 5.58203 98.96 5.20117 98.9795 4.86914C99.0088 4.53711 99.0283 4.30273 99.0381 4.16602L99.1553 2.73047C99.165 2.56445 99.2334 2.4082 99.3604 2.26172C99.4873 2.11523 99.6387 1.98828 99.8145 1.88086C100 1.77344 100.195 1.69043 100.4 1.63184C100.605 1.56348 100.796 1.5293 100.972 1.5293C101.138 1.5293 101.284 1.56348 101.411 1.63184C101.538 1.7002 101.641 1.7832 101.719 1.88086C101.807 1.97852 101.87 2.08594 101.909 2.20312C101.948 2.32031 101.968 2.42285 101.968 2.51074C101.968 2.64746 101.943 2.89648 101.895 3.25781C101.846 3.61914 101.777 4.05371 101.689 4.56152C101.602 5.06934 101.504 5.62598 101.396 6.23145C101.289 6.83691 101.177 7.45215 101.06 8.07715C100.952 8.69238 100.845 9.29785 100.737 9.89355C100.63 10.4795 100.532 11.0117 100.444 11.4902C100.356 11.959 100.283 12.3496 100.225 12.6621C100.166 12.9746 100.132 13.165 100.122 13.2334C99.9756 14.415 99.8486 15.4209 99.7412 16.251C99.6338 17.0811 99.541 17.7354 99.4629 18.2139C99.5605 18.1064 99.7363 17.9111 99.9902 17.6279C100.254 17.335 100.557 17.0029 100.898 16.6318C101.24 16.251 101.602 15.8506 101.982 15.4307C102.363 15.0107 102.72 14.6152 103.052 14.2441C103.384 13.8633 103.672 13.5361 103.916 13.2627C104.17 12.9795 104.336 12.7891 104.414 12.6914C104.814 12.1738 105.225 11.6514 105.645 11.124C106.074 10.5869 106.499 10.1035 106.919 9.67383C107.349 9.24414 107.773 8.89746 108.193 8.63379C108.613 8.36035 109.023 8.22363 109.424 8.22363C110.049 8.22363 110.361 8.39453 110.361 8.73633C110.361 8.89258 110.308 9.08301 110.2 9.30762C110.103 9.52246 109.98 9.74219 109.834 9.9668C109.688 10.1914 109.531 10.4111 109.365 10.626C109.209 10.8311 109.067 11.002 108.94 11.1387C108.784 11.3145 108.584 11.5244 108.34 11.7686C108.105 12.0029 107.847 12.2568 107.563 12.5303C107.29 12.8037 107.002 13.0869 106.699 13.3799C106.396 13.6631 106.104 13.9365 105.82 14.2002C105.547 14.4639 105.293 14.708 105.059 14.9326C104.834 15.1475 104.653 15.3232 104.517 15.46C104.399 15.5771 104.287 15.6846 104.18 15.7822C104.072 15.8799 103.965 15.9775 103.857 16.0752C103.76 16.1729 103.662 16.2852 103.564 16.4121C103.467 16.5293 103.359 16.6709 103.242 16.8369C104.189 17.4131 105.142 17.9746 106.099 18.5215C107.065 19.0586 108.022 19.5469 108.97 19.9863C109.927 20.4258 110.869 20.8066 111.797 21.1289C112.734 21.4414 113.647 21.666 114.536 21.8027C114.888 21.8613 115.195 21.8906 115.459 21.8906C115.732 21.8809 115.957 21.8809 116.133 21.8906C116.318 21.8906 116.455 21.9102 116.543 21.9492C116.641 21.9785 116.689 22.0566 116.689 22.1836Z" fill="white"/>
</svg>
